<svg width="200" height="200" viewBox="0 0 200 200" fill="none" xmlns="http://www.w3.org/2000/svg">
  <!-- Background Circle -->
  <circle cx="100" cy="100" r="100" fill="#0B0B0B"/>
  
  <!-- London Eye Wheel Simplified -->
  <circle cx="100" cy="100" r="60" stroke="#D4AF37" stroke-width="3" fill="none"/>
  <circle cx="100" cy="100" r="50" stroke="#D4AF37" stroke-width="2" fill="none"/>
  
  <!-- Spokes -->
  <line x1="100" y1="40" x2="100" y2="160" stroke="#D4AF37" stroke-width="1.5"/>
  <line x1="40" y1="100" x2="160" y2="100" stroke="#D4AF37" stroke-width="1.5"/>
  <line x1="55" y1="55" x2="145" y2="145" stroke="#D4AF37" stroke-width="1.5"/>
  <line x1="145" y1="55" x2="55" y2="145" stroke="#D4AF37" stroke-width="1.5"/>
  
  <!-- Center Hub -->
  <circle cx="100" cy="100" r="8" fill="#D4AF37"/>
  
  <!-- Small capsules on rim -->
  <circle cx="100" cy="38" r="4" fill="#FAFAFA"/>
  <circle cx="130" cy="50" r="4" fill="#FAFAFA"/>
  <circle cx="150" cy="70" r="4" fill="#FAFAFA"/>
  <circle cx="162" cy="100" r="4" fill="#FAFAFA"/>
  <circle cx="150" cy="130" r="4" fill="#FAFAFA"/>
  <circle cx="130" cy="150" r="4" fill="#FAFAFA"/>
  <circle cx="100" cy="162" r="4" fill="#FAFAFA"/>
  <circle cx="70" cy="150" r="4" fill="#FAFAFA"/>
  <circle cx="50" cy="130" r="4" fill="#FAFAFA"/>
  <circle cx="38" cy="100" r="4" fill="#FAFAFA"/>
  <circle cx="50" cy="70" r="4" fill="#FAFAFA"/>
  <circle cx="70" cy="50" r="4" fill="#FAFAFA"/>
</svg>
